# xmcd CD database file
#
# Track frame offsets:
#	150
#	13377
#	27020
#	40957
#	52850
#	71170
#	82407
#	90935
#	106107
#	117405
#	134560
#	146972
#	159022
#	178327
#
# Disc length: 2580 seconds
#
# Revision: 0
# Processed by: cddbd v1.5.2PL0 Copyright (c) Steve Scherf et al.
# Submitted via: CDex 1.70beta2
#
DISCID=c20a120e
DTITLE=The Shively Brothers - Blue Ridge Mountain Morning
DYEAR=1998
DGENRE=Country
TTITLE0=Blue Ridge Mountain Morning
TTITLE1=He's In The Picture Again
TTITLE2=Ole Foolish Heart
TTITLE3=Weather Woman
TTITLE4=Old Diehard Memories
TTITLE5=Just A Call Away
TTITLE6=Lay It On Jesus
TTITLE7=Bring Back Those Steam Engine Trains
TTITLE8=Cheatin Heart And All
TTITLE9=Mama's Journals
TTITLE10=You Still Tear Me Up
TTITLE11=The Punkin' Vine
TTITLE12=The Griffey Hill
TTITLE13=Heartbroke Crazy Looking For You
EXTD=YEAR: 1998
EXTT0=
EXTT1=
EXTT2=
EXTT3=
EXTT4=
EXTT5=
EXTT6=
EXTT7=
EXTT8=
EXTT9=
EXTT10=
EXTT11=
EXTT12=
EXTT13=
PLAYORDER=
